PathFileType	4	(X/Y/Z)	/Users/itak/Documents/Research/Walk-IL/dataset/trc/00383_00012.trc
DataRate	CameraRate	NumFrames	NumMarkers	Units	OrigDataRate	OrigDataStartFrame	OrigNumFrames
100.000000	100.000000	4	53	mm	100.000000	209	558
Frame#	Time	RPSI			LPSI			L3			STRN			T10			C7			CLAV			RBAK			LBAK			LSHO			LUPA			LAEL			LAOL			LWTS			LWPS			LFRA			LIFD			LHPS			LHTS			RSHO			RUPA			RAEL			RAOL			RWTS			RWPS			RFRA			RIFD			RHTS			RHPS			RBHD			LFHD			RFHD			LBHD			LHIP			RHIP			RASI			LASI			LKNE			LTHI			LANK			LTIP			LTOE			LMT1			LMT5			LHEE			RKNE			RTHI			RANK			RTIP			RTOE			RMT1			RMT5			RHEE			
		X1	Y1	Z1	X2	Y2	Z2	X3	Y3	Z3	X4	Y4	Z4	X5	Y5	Z5	X6	Y6	Z6	X7	Y7	Z7	X8	Y8	Z8	X9	Y9	Z9	X10	Y10	Z10	X11	Y11	Z11	X12	Y12	Z12	X13	Y13	Z13	X14	Y14	Z14	X15	Y15	Z15	X16	Y16	Z16	X17	Y17	Z17	X18	Y18	Z18	X19	Y19	Z19	X20	Y20	Z20	X21	Y21	Z21	X22	Y22	Z22	X23	Y23	Z23	X24	Y24	Z24	X25	Y25	Z25	X26	Y26	Z26	X27	Y27	Z27	X28	Y28	Z28	X29	Y29	Z29	X30	Y30	Z30	X31	Y31	Z31	X32	Y32	Z32	X33	Y33	Z33	X34	Y34	Z34	X35	Y35	Z35	X36	Y36	Z36	X37	Y37	Z37	X38	Y38	Z38	X39	Y39	Z39	X40	Y40	Z40	X41	Y41	Z41	X42	Y42	Z42	X43	Y43	Z43	X44	Y44	Z44	X45	Y45	Z45	X46	Y46	Z46	X47	Y47	Z47	X48	Y48	Z48	X49	Y49	Z49	X50	Y50	Z50	X51	Y51	Z51	X52	Y52	Z52	X53	Y53	Z53	

210	2.09	-1486.493774414062	983.6631469726562	128.6256713867188	-1488.198608398438	974.0869750976562	-4.918447971343994	-1486.98681640625	1060.4736328125	72.61306762695312	-1226.615966796875	1195.51708984375	75.93482971191406	-1485.164428710938	1164.973876953125	71.65452575683594	-1419.225341796875	1407.73095703125	69.25679779052734	-1272.435424804688	1317.920654296875	75.15053558349609	-1477.014770507812	1266.956298828125	133.5062408447266	-1439.560302734375	1373.513671875	-32.73698043823242	-1353.540649414062	1381.9794921875	-84.97901153564453	-1400.835693359375	1271.728637695312	-152.8735961914062	-1421.050048828125	1078.289794921875	-184.6458587646484	-1471.654663085938	1062.802612304688	-117.6958923339844	-1327.1796875	866.289794921875	-157.1091918945312	-1383.370361328125	851.7033081054688	-213.4759216308594	-1410.251342773438	974.9481201171875	-199.3526611328125	-1322.577392578125	688.828857421875	-158.1522827148438	-1364.014892578125	767.5130615234375	-209.0556030273438	-1305.081420898438	771.4515991210938	-181.6325988769531	-1368.510864257812	1380.909057617188	227.0174407958984	-1393.115112304688	1319.560668945312	284.1902465820312	-1434.713623046875	1062.719482421875	328.677734375	-1451.26611328125	1053.861694335938	234.8816986083984	-1322.814331054688	836.8319702148438	309.43359375	-1371.663696289062	829.9462280273438	365.3120422363281	-1417.716674804688	994.30859375	347.0918273925781	-1349.848022460938	664.7445678710938	304.9371032714844	-1321.842895507812	728.146728515625	327.3789672851562	-1378.215942382812	740.4364624023438	362.7247924804688	-1365.349853515625	1593.232421875	145.8522796630859	-1227.640258789062	1581.0234375	3.21408486366272	-1233.416625976562	1592.251342773438	125.0618667602539	-1375.078125	1578.334228515625	-14.99748802185059	-1407.100952148438	970.2669067382812	-115.0044021606445	-1411.067749023438	947.430908203125	246.3866271972656	-1274.146728515625	949.3157348632812	201.6186370849609	-1284.955078125	964.1163330078125	-60.99889755249023	-1153.659912109375	523.7626953125	-54.54446029663086	-1217.591430664062	647.2330932617188	-78.35218048095703	-1327.64892578125	104.2164535522461	-48.79234313964844	-1237.070434570312	299.9876403808594	-65.47044372558594	-1122.341674804688	76.84506988525391	16.75346565246582	-1197.481201171875	82.06673431396484	47.371826171875	-1203.806640625	78.73413848876953	-59.76918029785156	-1363.35986328125	107.2353439331055	8.206003189086914	-1429.34912109375	457.6042175292969	199.0513916015625	-1359.10693359375	712.2099609375	238.3939971923828	-1547.76025390625	56.28180694580078	141.8710174560547	-1438.922119140625	330.7684936523438	174.3847351074219	-1371.252807617188	40.74716186523438	74.00876617431641	-1446.418090820312	44.18760299682617	47.67065811157227	-1463.543823242188	48.02216339111328	146.6587677001953	-1622.84033203125	45.6015625	89.736083984375	
211	2.1	-1481.136352539062	982.6510009765625	128.7811279296875	-1482.616455078125	973.1573486328125	-4.754040241241455	-1481.580078125	1059.635864257812	72.87757110595703	-1220.997802734375	1194.146240234375	76.37004852294922	-1479.624145507812	1164.224365234375	71.91931915283203	-1413.152221679688	1406.767211914062	69.50921630859375	-1266.487182617188	1316.69775390625	75.45631408691406	-1471.061157226562	1266.131713867188	134.0322113037109	-1433.560791015625	1372.555908203125	-32.36169052124023	-1347.546264648438	1380.6875	-84.69338989257812	-1395.462646484375	1270.549560546875	-152.3072814941406	-1417.079467773438	1077.318969726562	-183.9426422119141	-1467.2724609375	1062.06787109375	-116.576301574707	-1326.838256835938	863.2904663085938	-157.1426239013672	-1383.758666992188	850.078857421875	-213.2864379882812	-1407.990600585938	973.7108154296875	-198.7930755615234	-1326.202880859375	685.5985107421875	-158.7892608642578	-1366.201782226562	765.4789428710938	-209.1370239257812	-1306.734375	768.0637817382812	-181.8840942382812	-1362.317504882812	1379.982788085938	227.3423767089844	-1386.882934570312	1318.674072265625	284.7056884765625	-1427.614990234375	1061.761108398438	329.9208374023438	-1444.838012695312	1052.743530273438	236.2299194335938	-1313.746704101562	836.8544311523438	309.6690673828125	-1362.0791015625	829.4257202148438	365.8791809082031	-1409.885620117188	993.3326416015625	348.097412109375	-1338.671875	664.5118408203125	305.2438354492188	-1311.278198242188	728.3001708984375	327.5410461425781	-1367.501098632812	739.85498046875	363.245361328125	-1359.6220703125	1592.08251953125	146.0273742675781	-1222.076782226562	1580.169921875	3.183477640151978	-1227.69677734375	1591.555053710938	125.0234451293945	-1369.460327148438	1576.8740234375	-14.84617328643799	-1398.51953125	969.748291015625	-113.8978576660156	-1406.160888671875	946.3348388671875	246.6527404785156	-1269.09130859375	947.9985961914062	202.3621826171875	-1279.150024414062	963.4060668945312	-60.22437286376953	-1146.16552734375	523.9884033203125	-53.78701782226562	-1211.071411132812	647.18701171875	-78.13732147216797	-1305.57763671875	98.54728698730469	-44.65580368041992	-1222.3173828125	297.2994689941406	-63.15438842773438	-1099.698120117188	78.09706878662109	20.84307479858398	-1174.896362304688	81.43063354492188	51.46268844604492	-1181.17724609375	76.65488433837891	-55.56898498535156	-1341.355712890625	101.0684356689453	12.31793212890625	-1427.321655273438	456.9478454589844	199.4023590087891	-1354.9208984375	711.0320434570312	238.6625366210938	-1547.686889648438	56.33174514770508	141.8562927246094	-1437.53173828125	330.1939697265625	174.6119079589844	-1371.163330078125	40.66363525390625	74.18118286132812	-1446.396362304688	44.15773773193359	47.56422424316406	-1463.4541015625	47.97213363647461	146.6795349121094	-1622.742797851562	45.71416854858398	89.68435668945312	
212	2.11	-1475.531005859375	981.5621337890625	128.9050903320312	-1476.81494140625	972.0889892578125	-4.625705242156982	-1475.901733398438	1058.5986328125	73.08702087402344	-1215.186767578125	1192.712890625	76.79534149169922	-1473.917846679688	1163.286376953125	72.13465118408203	-1406.980346679688	1405.663818359375	69.7509765625	-1260.444580078125	1315.360595703125	75.76007080078125	-1465.026733398438	1265.166748046875	134.5304718017578	-1427.445922851562	1371.457275390625	-32.00626754760742	-1341.431762695312	1379.282958984375	-84.41815185546875	-1389.955932617188	1269.258911132812	-151.7474060058594	-1412.9580078125	1076.243286132812	-183.223388671875	-1462.763061523438	1061.22900390625	-115.4626541137695	-1326.504028320312	860.2540893554688	-157.1314239501953	-1384.098754882812	848.4384155273438	-213.0731811523438	-1405.609619140625	972.4049072265625	-198.1981048583984	-1329.75537109375	682.4788818359375	-159.3051605224609	-1368.353759765625	763.4657592773438	-209.1754455566406	-1308.4521484375	764.63037109375	-182.0704345703125	-1356.044067382812	1378.923217773438	227.6540679931641	-1380.553588867188	1317.643920898438	285.20458984375	-1420.275390625	1060.62451171875	331.1474304199219	-1438.16845703125	1051.438842773438	237.5547027587891	-1304.341796875	836.8221435546875	309.8648376464844	-1352.054321289062	828.8423461914062	366.4288330078125	-1401.7763671875	992.2112426757812	349.0917358398438	-1327.031372070312	664.227783203125	305.6089477539062	-1300.353393554688	728.3883056640625	327.6983337402344	-1356.311279296875	739.2080078125	363.8117065429688	-1353.76416015625	1590.831665039062	146.2108001708984	-1216.374877929688	1579.159057617188	3.137351036071777	-1221.832763671875	1590.71826171875	124.9820709228516	-1363.713012695312	1575.291748046875	-14.70737934112549	-1389.6123046875	969.0347290039062	-112.836540222168	-1400.9736328125	945.2101440429688	246.9021606445312	-1263.81884765625	946.58642578125	203.0239410400391	-1273.086669921875	962.5077514648438	-59.50675964355469	-1138.820190429688	523.8257446289062	-53.05041885375977	-1204.611450195312	646.8074951171875	-77.95697784423828	-1282.994995117188	92.88034820556641	-40.57205200195312	-1207.404052734375	294.4650573730469	-60.84743881225586	-1076.815673828125	79.66030883789062	25.12195777893066	-1152.103637695312	81.002197265625	55.66012191772461	-1158.105590820312	74.75457763671875	-51.26130294799805	-1318.906616210938	94.89051818847656	16.33273696899414	-1425.209838867188	456.27197265625	199.8001098632812	-1350.486328125	709.804931640625	238.9049835205078	-1547.636352539062	56.36173248291016	141.8521118164062	-1436.103637695312	329.6045227050781	174.8746643066406	-1371.08349609375	40.61905670166016	74.37688446044922	-1446.369018554688	44.14519500732422	47.48296737670898	-1463.40380859375	47.89084625244141	146.6942901611328	-1622.656860351562	45.84963989257812	89.67627716064453	
213	2.12	-1469.670532226562	980.4105834960938	128.9915924072266	-1470.78076171875	970.8875732421875	-4.528584003448486	-1469.94775390625	1057.361083984375	73.22898101806641	-1209.191528320312	1191.214477539062	77.20800018310547	-1468.024780273438	1162.138061523438	72.2919921875	-1400.705322265625	1404.410766601562	69.97950744628906	-1254.302368164062	1313.914672851562	76.06067657470703	-1458.921508789062	1264.0537109375	134.991943359375	-1421.21875	1370.208618164062	-31.67544174194336	-1335.204956054688	1377.765991210938	-84.16017913818359	-1384.323974609375	1267.860595703125	-151.2018890380859	-1408.698608398438	1075.063232421875	-182.4799957275391	-1458.130249023438	1060.291381835938	-114.343505859375	-1326.16259765625	857.1902465820312	-157.0659637451172	-1384.35302734375	846.7890625	-212.8195037841797	-1403.109252929688	971.0328369140625	-197.5589447021484	-1333.205200195312	679.5082397460938	-159.6684417724609	-1370.436645507812	761.4872436523438	-209.1634826660156	-1310.275512695312	761.1738891601562	-182.2241668701172	-1349.705078125	1377.728759765625	227.9462432861328	-1374.138061523438	1316.470092773438	285.6773681640625	-1412.713134765625	1059.314086914062	332.3400268554688	-1431.2529296875	1049.946044921875	238.8314666748047	-1294.593627929688	836.75244140625	310.03662109375	-1341.612548828125	828.2028198242188	366.9603576660156	-1393.407958984375	990.9473266601562	350.0655212402344	-1314.957641601562	663.9089965820312	306.0239868164062	-1289.125	728.4149780273438	327.8583679199219	-1344.680908203125	738.5081176757812	364.4184265136719	-1347.772338867188	1589.475708007812	146.3915863037109	-1210.522827148438	1577.981689453125	3.078506946563721	-1215.824340820312	1589.7314453125	124.9363403320312	-1357.833862304688	1573.596313476562	-14.57754325866699	-1380.820556640625	968.109130859375	-111.9209060668945	-1395.493896484375	944.0513916015625	247.1392669677734	-1258.3154296875	945.0814208984375	203.6009063720703	-1266.748291015625	961.4249877929688	-58.85714721679688	-1131.59912109375	523.2853393554688	-52.35243988037109	-1198.179443359375	646.10791015625	-77.81375122070312	-1260.032348632812	87.33341217041016	-36.58296966552734	-1192.37255859375	291.5480651855469	-58.56719589233398	-1053.839233398438	81.58701324462891	29.55085372924805	-1129.225219726562	80.84678649902344	59.92952346801758	-1134.722778320312	73.13014984130859	-46.88550186157227	-1296.131591796875	88.79845428466797	20.21378517150879	-1423.03564453125	455.5789794921875	200.2397155761719	-1345.832153320312	708.5233764648438	239.1337127685547	-1547.593017578125	56.37196350097656	141.8486633300781	-1434.650146484375	329.0069274902344	175.1716461181641	-1371.002685546875	40.60137176513672	74.59008026123047	-1446.3369140625	44.13698196411133	47.42575836181641	-1463.392211914062	47.78432846069336	146.7021179199219	-1622.584716796875	46.01951599121094	89.70699310302734	
